<svg width="33" height="32" viewBox="0 0 33 32" fill="none" xmlns="http://www.w3.org/2000/svg">
<path d="M13.833 15.1113H16.4997V16.8891H13.833V15.1113Z" fill="#0D0C0C"/>
<path d="M24.0107 12.5957C22.4342 10.0159 20.2836 7.83487 17.7262 6.22232C16.5448 5.47355 15.1981 5.02538 13.8036 4.91692C12.4091 4.80846 11.0092 5.04301 9.72623 5.6001C8.60402 6.12943 7.62751 6.92398 6.88106 7.91513C6.1346 8.90627 5.64062 10.0642 5.44179 11.289C5.37068 11.7068 5.31734 12.1068 5.26401 12.4979C4.43178 12.6328 3.67457 13.059 3.1275 13.7005C2.58044 14.342 2.27913 15.157 2.27734 16.0001V21.449C2.27734 21.9205 2.46464 22.3727 2.79804 22.7061C3.13144 23.0395 3.58363 23.2268 4.05512 23.2268V16.0001C4.05512 15.5286 4.24242 15.0764 4.57582 14.743C4.90922 14.4096 5.3614 14.2223 5.8329 14.2223H22.4818C24.195 14.2247 25.8373 14.9063 27.0487 16.1177C28.2601 17.3291 28.9417 18.9714 28.944 20.6845V21.3334H27.1662C26.7908 20.418 26.0915 19.6728 25.2017 19.2401C24.3119 18.8073 23.2939 18.7174 22.342 18.9874C21.3901 19.2573 20.5709 19.8683 20.0408 20.7037C19.5106 21.5392 19.3066 22.5405 19.4677 23.5168C19.6288 24.493 20.1437 25.3758 20.9141 25.9966C21.6845 26.6174 22.6566 26.9329 23.6447 26.8827C24.6329 26.8326 25.568 26.4204 26.2717 25.7247C26.9753 25.0291 27.3981 24.0987 27.4596 23.1112H28.944C29.4155 23.1112 29.8677 22.9239 30.2011 22.5905C30.5345 22.2571 30.7218 21.8049 30.7218 21.3334V20.6845C30.7182 18.7663 30.0462 16.9092 28.8213 15.4329C27.5964 13.9565 25.8953 12.9533 24.0107 12.5957ZM10.2773 12.4445H6.65957C6.65957 12.169 6.73957 11.8845 6.7929 11.5557C6.94647 10.5792 7.34725 9.6582 7.95713 8.88029C8.56702 8.10238 9.36573 7.49338 10.2773 7.11121V12.4445ZM12.0551 12.4445V6.73787C13.7146 6.52237 15.3977 6.88661 16.8196 7.76898C18.7607 8.97803 20.436 10.5687 21.744 12.4445H12.0551ZM23.4329 25.2268C22.9934 25.2268 22.5637 25.0964 22.1983 24.8523C21.8329 24.6081 21.548 24.261 21.3798 23.8549C21.2116 23.4489 21.1676 23.0021 21.2534 22.571C21.3391 22.1399 21.5508 21.744 21.8616 21.4332C22.1723 21.1224 22.5683 20.9108 22.9994 20.825C23.4304 20.7393 23.8772 20.7833 24.2833 20.9515C24.6894 21.1197 25.0364 21.4045 25.2806 21.7699C25.5248 22.1354 25.6551 22.565 25.6551 23.0045C25.6551 23.5939 25.421 24.1591 25.0042 24.5759C24.5875 24.9926 24.0223 25.2268 23.4329 25.2268Z" fill="#0D0C0C"/>
<path d="M13.096 21.3333C12.7206 20.4179 12.0212 19.6727 11.1314 19.24C10.2416 18.8073 9.22367 18.7173 8.27177 18.9873C7.31987 19.2572 6.50069 19.8682 5.97054 20.7036C5.4404 21.5391 5.2364 22.5404 5.39748 23.5167C5.55856 24.4929 6.07344 25.3757 6.84387 25.9965C7.6143 26.6173 8.58634 26.9328 9.57451 26.8826C10.5627 26.8325 11.4978 26.4203 12.2014 25.7246C12.905 25.029 13.3279 24.0986 13.3893 23.1111H18.1004V22.8889C18.0829 22.3645 18.1428 21.8403 18.2782 21.3333H13.096ZM9.38933 25.2267C8.94981 25.2267 8.52017 25.0963 8.15473 24.8522C7.78928 24.608 7.50446 24.2609 7.33626 23.8549C7.16807 23.4488 7.12406 23.002 7.2098 22.5709C7.29555 22.1398 7.5072 21.7439 7.81798 21.4331C8.12876 21.1223 8.52472 20.9107 8.95579 20.8249C9.38686 20.7392 9.83368 20.7832 10.2397 20.9514C10.6458 21.1196 10.9929 21.4044 11.237 21.7698C11.4812 22.1353 11.6115 22.5649 11.6115 23.0044C11.6115 23.5938 11.3774 24.159 10.9607 24.5758C10.5439 24.9925 9.9787 25.2267 9.38933 25.2267Z" fill="#0D0C0C"/>
</svg>
